<svg width="96" height="96" viewBox="0 0 32 32" fill="none" stroke="#f7f7f7" stroke-width="2.67" stroke-linecap="round" stroke-linejoin="round">
  <path d="M13.25 20.67c-.12-.46-.36-.88-.7-1.22s-.76-.58-1.22-.7L3.15 16.64a.4.4 0 010-.78l8.18-2.11c.46-.12.88-.36 1.22-.7s.58-.76.7-1.22l2.11-8.18a.4.4 0 01.78 0l2.11 8.18c.12.46.36.88.7 1.22s.76.58 1.22.7l8.18 2.11a.4.4 0 010 .78l-8.18 2.11c-.46.12-.88.36-1.22.7s-.58.76-.7 1.22l-2.11 8.18a.4.4 0 01-.78 0l-2.11-8.18z" />
  <path d="M26.67 4v5.33M29.33 6.67H24M5.33 22.67v2.66M6.67 24H4" />
</svg>